<?xml version="1.0" encoding="UTF-8" standalone="no"?>
<!DOCTYPE svg PUBLIC "-//W3C//DTD SVG 1.1//EN" "http://www.w3.org/Graphics/SVG/1.1/DTD/svg11.dtd">
<svg width="100%" height="100%" viewBox="0 0 93 164" version="1.1" xmlns="http://www.w3.org/2000/svg" xmlns:xlink="http://www.w3.org/1999/xlink" xml:space="preserve" xmlns:serif="http://www.serif.com/" style="fill-rule:evenodd;clip-rule:evenodd;stroke-linejoin:round;stroke-miterlimit:2;">
    <g transform="matrix(1,0,0,1,-622.619,-4.23149)">
        <path d="M714.541,119.909C714.57,120.04 714.598,120.171 714.626,120.303C718.919,140.465 703.953,161.162 681.228,166.492C658.501,171.822 636.566,159.78 632.273,139.618C627.98,119.456 642.945,98.759 665.671,93.429L651.56,27.154C650.677,23.004 653.649,18.769 658.195,17.703L682.901,11.909C687.446,10.843 691.853,13.347 692.737,17.496L714.541,119.909Z" style="fill:rgb(251,234,168);"/>
    </g>
    <g transform="matrix(1,0,0,1,-622.619,-4.23149)">
        <path d="M705.622,112.477C705.652,112.608 705.679,112.74 705.707,112.871C710,133.033 695.035,153.73 672.309,159.06C649.583,164.39 627.647,152.348 623.354,132.186C619.061,112.024 634.026,91.327 656.753,85.997L642.642,19.722C641.758,15.572 644.73,11.338 649.276,10.272L673.982,4.477C678.527,3.411 682.934,5.915 683.818,10.064L705.622,112.477Z" style="fill:rgb(29,29,30);"/>
    </g>
</svg>
