<svg width="72" height="76" viewBox="0 0 72 76" fill="none" xmlns="http://www.w3.org/2000/svg">
<path d="M36.0001 75.143C26.3843 75.143 17.3436 71.3832 10.5441 64.5559C3.74463 57.7288 0 48.6515 0 38.9965C0 29.3415 3.74463 20.2643 10.5441 13.4372C17.3437 6.61012 26.3843 2.85028 36.0001 2.85028C45.6158 2.85028 54.657 6.61012 61.4557 13.4372C68.2555 20.2643 72 29.3415 72 38.9965C72 48.6515 68.2555 57.7288 61.4557 64.5559C54.657 71.3832 45.6158 75.143 36.0001 75.143ZM36.0001 5.8119C27.1715 5.8119 18.8724 9.26374 12.6299 15.5314C6.3875 21.7991 2.94974 30.1326 2.94974 38.9965C2.94974 47.8605 6.38762 56.1939 12.6299 62.4616C18.8722 68.7292 27.1715 72.1815 36.0001 72.1815C44.8286 72.1815 53.1282 68.7292 59.3702 62.4616C65.6122 56.1939 69.0505 47.8605 69.0505 38.9965C69.0505 30.1326 65.6122 21.7992 59.3702 15.5314C53.1282 9.26363 44.8286 5.8119 36.0001 5.8119Z" fill="#3D3D3D"/>
<path d="M36.0001 72.2932C26.3843 72.2932 17.3437 68.5324 10.5441 61.7057C3.74463 54.8785 0 45.8014 0 36.1463C0 26.4913 3.74463 17.4142 10.5441 10.587C17.3437 3.75985 26.3843 0 36.0001 0C45.6158 0 54.657 3.75985 61.4557 10.587C68.2555 17.4142 72 26.4913 72 36.1463C72 45.8014 68.2555 54.8785 61.4557 61.7057C54.657 68.5324 45.6158 72.2932 36.0001 72.2932ZM36.0001 2.96162C27.1715 2.96162 18.8724 6.41346 12.6299 12.6811C6.3875 18.9488 2.94974 27.2823 2.94974 36.1462C2.94974 45.0102 6.38762 53.3436 12.6299 59.6113C18.8722 65.879 27.1715 69.3306 36.0001 69.3306C44.8286 69.3306 53.1282 65.879 59.3702 59.6113C65.6122 53.3436 69.0505 45.0102 69.0505 36.1462C69.0505 27.2823 65.6122 18.9489 59.3702 12.6811C53.1282 6.41335 44.8286 2.96162 36.0001 2.96162Z" fill="#E5B92C"/>
<path d="M24.7853 35.9385C27.3808 35.9385 29.4848 33.1478 29.4848 29.7054C29.4848 26.2629 27.3808 23.4722 24.7853 23.4722C22.1899 23.4722 20.0859 26.2629 20.0859 29.7054C20.0859 33.1478 22.1899 35.9385 24.7853 35.9385Z" fill="#E5B92C"/>
<path d="M48.1828 35.9385C50.7782 35.9385 52.8822 33.1478 52.8822 29.7054C52.8822 26.2629 50.7782 23.4722 48.1828 23.4722C45.5874 23.4722 43.4834 26.2629 43.4834 29.7054C43.4834 33.1478 45.5874 35.9385 48.1828 35.9385Z" fill="#E5B92C"/>
<path d="M48.7551 51.4592H24.7815C23.9669 51.4592 23.3066 50.7962 23.3066 49.9783C23.3066 49.1604 23.9669 48.4974 24.7815 48.4974H48.7551C49.5702 48.4974 50.2304 49.1604 50.2304 49.9783C50.2293 50.7962 49.5691 51.4592 48.7551 51.4592Z" fill="#E5B92C"/>
</svg>
