<svg width="22" height="21" viewBox="0 0 22 21" fill="none" xmlns="http://www.w3.org/2000/svg">
<path d="M10.6669 20.9437C7.89563 20.9437 5.29028 19.9368 3.33073 18.1082C1.37116 16.2797 0.291992 13.8486 0.291992 11.2627C0.291992 8.67681 1.37116 6.2457 3.33073 4.41721C5.29028 2.58872 7.89567 1.58173 10.6669 1.58173C13.4381 1.58173 16.0435 2.58872 18.003 4.41721C19.9626 6.2457 21.0417 8.67681 21.0417 11.2627C21.0417 13.8486 19.9626 16.2797 18.003 18.1082C16.0435 19.9368 13.4381 20.9437 10.6669 20.9437ZM10.6669 2.37493C8.12272 2.37493 5.73082 3.29943 3.93181 4.97809C2.13281 6.65675 1.14208 8.88868 1.14208 11.2627C1.14208 13.6367 2.13284 15.8686 3.93181 17.5473C5.73079 19.2259 8.12269 20.1506 10.6669 20.1506C13.2111 20.1506 15.6029 19.2259 17.4019 17.5473C19.2009 15.8686 20.1917 13.6367 20.1917 11.2627C20.1917 8.88868 19.2009 6.65678 17.4019 4.97809C15.6029 3.2994 13.211 2.37493 10.6669 2.37493Z" fill="#E2E2E2"/>
<path d="M10.6669 20.1805C7.89567 20.1805 5.29028 19.1732 3.33073 17.3449C1.37116 15.5164 0.291992 13.0852 0.291992 10.4994C0.291992 7.91345 1.37116 5.48233 3.33073 3.65384C5.29028 1.82535 7.89567 0.818359 10.6669 0.818359C13.4381 0.818359 16.0435 1.82535 18.003 3.65384C19.9626 5.48236 21.0417 7.91348 21.0417 10.4994C21.0417 13.0852 19.9626 15.5164 18.003 17.3449C16.0434 19.1732 13.4381 20.1805 10.6669 20.1805ZM10.6669 1.61156C8.12272 1.61156 5.73082 2.53606 3.93181 4.21472C2.13281 5.89338 1.14208 8.12532 1.14208 10.4993C1.14208 12.8733 2.13284 15.1053 3.93181 16.7839C5.73079 18.4626 8.12269 19.387 10.6669 19.387C13.2111 19.387 15.6029 18.4626 17.4019 16.7839C19.2009 15.1053 20.1917 12.8733 20.1917 10.4993C20.1917 8.12532 19.2009 5.89341 17.4019 4.21472C15.6029 2.53603 13.211 1.61156 10.6669 1.61156Z" fill="#43AF64"/>
<path d="M7.43538 10.4436C8.18335 10.4436 8.7897 9.69613 8.7897 8.77414C8.7897 7.85215 8.18335 7.10474 7.43538 7.10474C6.68741 7.10474 6.08105 7.85215 6.08105 8.77414C6.08105 9.69613 6.68741 10.4436 7.43538 10.4436Z" fill="#43AF64"/>
<path d="M14.1776 10.4436C14.9255 10.4436 15.5319 9.69613 15.5319 8.77414C15.5319 7.85215 14.9255 7.10474 14.1776 7.10474C13.4296 7.10474 12.8232 7.85215 12.8232 8.77414C12.8232 9.69613 13.4296 10.4436 14.1776 10.4436Z" fill="#43AF64"/>
<path d="M10.6667 15.8009C8.97832 15.8009 7.54608 15.2268 6.40974 14.0944C6.24926 13.9346 6.25809 13.6836 6.42944 13.5339C6.60082 13.3842 6.86982 13.3924 7.0302 13.5523C7.9994 14.518 9.22286 15.0077 10.6666 15.0077C12.1104 15.0077 13.3338 14.518 14.303 13.5523C14.4635 13.3924 14.7324 13.3841 14.9037 13.5339C15.0751 13.6836 15.0839 13.9346 14.9235 14.0944C13.8032 15.2108 12.3312 15.8009 10.6667 15.8009Z" fill="#43AF64"/>
</svg>
