<svg width="71" height="70" viewBox="0 0 71 70" fill="none" xmlns="http://www.w3.org/2000/svg">
<path d="M35.4802 69.9102C26.0033 69.9102 17.0927 66.4123 10.3921 60.0604C3.69046 53.7087 0 45.2636 0 36.2809C0 27.2982 3.69046 18.8532 10.3921 12.5015C17.0927 6.14981 26.0033 2.65179 35.4802 2.65179C44.9572 2.65179 53.8678 6.14981 60.5684 12.5015C67.27 18.8532 70.9605 27.2982 70.9605 36.2809C70.9605 45.2636 67.27 53.7087 60.5684 60.0604C53.8678 66.4123 44.9572 69.9102 35.4802 69.9102ZM35.4802 5.40717C26.7792 5.40717 18.5994 8.61864 12.4475 14.4499C6.29562 20.2811 2.90694 28.0342 2.90694 36.2809C2.90694 44.5276 6.29562 52.2808 12.4475 58.112C18.5994 63.9431 26.7792 67.155 35.4802 67.155C44.1813 67.155 52.3611 63.9431 58.513 58.112C64.6649 52.2808 68.0536 44.5276 68.0536 36.2809C68.0536 28.0342 64.6649 20.2812 58.513 14.4499C52.3611 8.61854 44.1813 5.40717 35.4802 5.40717Z" fill="#3D3D3D"/>
<path d="M35.4802 67.259C26.0033 67.259 17.0927 63.76 10.3921 57.4087C3.69046 51.0569 0 42.6119 0 33.6292C0 24.6466 3.69046 16.2015 10.3921 9.84972C17.0927 3.49802 26.0033 0 35.4802 0C44.9572 0 53.8678 3.49802 60.5684 9.84972C67.27 16.2014 70.9605 24.6465 70.9605 33.6292C70.9605 42.6119 67.27 51.057 60.5684 57.4087C53.8678 63.76 44.9572 67.259 35.4802 67.259ZM35.4802 2.75538C26.7792 2.75538 18.5994 5.96685 12.4475 11.7981C6.29562 17.6293 2.90694 25.3824 2.90694 33.6291C2.90694 41.8758 6.29562 49.629 12.4475 55.4602C18.5994 61.2914 26.7792 64.5027 35.4802 64.5027C44.1813 64.5027 52.3611 61.2914 58.513 55.4602C64.6649 49.629 68.0536 41.8758 68.0536 33.6291C68.0536 25.3824 64.6649 17.6294 58.513 11.7981C52.3611 5.96674 44.1813 2.75538 35.4802 2.75538Z" fill="#C94545"/>
<path d="M24.4285 33.4359C26.9864 33.4359 29.06 30.8395 29.06 27.6368C29.06 24.434 26.9864 21.8377 24.4285 21.8377C21.8705 21.8377 19.7969 24.434 19.7969 27.6368C19.7969 30.8395 21.8705 33.4359 24.4285 33.4359Z" fill="#C94545"/>
<path d="M47.487 33.4359C50.045 33.4359 52.1186 30.8395 52.1186 27.6368C52.1186 24.434 50.045 21.8377 47.487 21.8377C44.9291 21.8377 42.8555 24.434 42.8555 27.6368C42.8555 30.8395 44.9291 33.4359 47.487 33.4359Z" fill="#C94545"/>
<path d="M48.978 50.6215C48.5895 50.6215 48.2022 50.4751 47.9168 50.1855C44.6017 46.8308 40.4185 45.1299 35.4803 45.1299C30.5432 45.1299 26.3589 46.8308 23.0449 50.1855C22.4962 50.7409 21.5766 50.7697 20.9906 50.2495C20.4046 49.7294 20.3739 48.8576 20.9226 48.3021C24.7535 44.4242 29.7882 42.3745 35.4803 42.3745C41.2547 42.3745 46.1523 44.3688 50.038 48.3021C50.5867 48.8576 50.5571 49.7294 49.9711 50.2495C49.6902 50.4983 49.3335 50.6215 48.978 50.6215Z" fill="#C94545"/>
</svg>
