<svg width="18" height="18" viewBox="0 0 18 18" fill="none" xmlns="http://www.w3.org/2000/svg">
<path d="M9.89979 3.08836V14.9145C9.89979 15.4948 9.567 15.9924 9.03125 16.213C8.85234 16.2872 8.66739 16.3235 8.48524 16.3235C8.12366 16.3235 7.77287 16.1807 7.50041 15.9082L3.54843 11.9562H1.19436C0.535816 11.9562 0 11.4204 0 10.7618V7.23602C0 6.57691 0.535781 6.04064 1.19436 6.04064H3.54839L7.4964 2.09266C7.90692 1.68214 8.49477 1.56521 9.03055 1.78744C9.56654 2.00913 9.89979 2.50768 9.89979 3.08836ZM15.0246 2.82894C14.7816 2.6352 14.4277 2.67506 14.234 2.91796C14.0403 3.16085 14.0801 3.51484 14.323 3.70855C15.9446 5.00177 16.8747 6.93045 16.8747 8.99992C16.8747 11.0694 15.9446 12.9981 14.323 14.2913C14.0801 14.485 14.0403 14.839 14.234 15.0819C14.3451 15.2212 14.5088 15.2937 14.6742 15.2937C14.7972 15.2937 14.921 15.2535 15.0246 15.1709C16.9154 13.6629 17.9998 11.4137 17.9998 8.99992C17.9998 6.58612 16.9153 4.3369 15.0246 2.82894ZM12.4486 5.32141C12.1865 5.15463 11.8388 5.23184 11.6719 5.49389C11.5051 5.75598 11.5823 6.10371 11.8445 6.27056C12.7833 6.86818 13.3439 7.88849 13.3439 8.99992C13.3439 10.1113 12.7833 11.1317 11.8445 11.7293C11.5823 11.8961 11.5051 12.2439 11.6719 12.5059C11.7792 12.6744 11.9611 12.7665 12.147 12.7665C12.2504 12.7665 12.355 12.738 12.4486 12.6784C13.7137 11.8732 14.469 10.498 14.469 8.99992C14.469 7.50184 13.7137 6.1267 12.4486 5.32141Z" fill="#E6E6E6"/>
</svg>
