<?xml version="1.0" encoding="UTF-8" standalone="no"?>
<!DOCTYPE svg PUBLIC "-//W3C//DTD SVG 1.1//EN" "http://www.w3.org/Graphics/SVG/1.1/DTD/svg11.dtd">
<svg width="100%" height="100%" viewBox="0 0 373 464" version="1.1" xmlns="http://www.w3.org/2000/svg" xmlns:xlink="http://www.w3.org/1999/xlink" xml:space="preserve" xmlns:serif="http://www.serif.com/" style="fill-rule:evenodd;clip-rule:evenodd;stroke-linejoin:round;stroke-miterlimit:2;">
    <g transform="matrix(3.34514,0,0,3.34516,-4495.33,-330.9)">
        <g transform="matrix(0.701936,0,0,0.66755,-2237.36,-85.823)">
            <g transform="matrix(0.480723,0,0,0.505485,4613.91,90.5763)">
                <g transform="matrix(1,0,0,0.875613,988.246,308.336)">
                    <path d="M187.731,103.014L187.731,357.168C187.731,368.475 179.693,377.655 169.792,377.655L133.914,377.655C124.013,377.655 115.975,368.475 115.975,357.168L115.975,103.014C115.975,91.707 124.013,82.526 133.914,82.526L169.792,82.526C179.693,82.526 187.731,91.707 187.731,103.014Z" style="fill:rgb(227,220,245);"/>
                </g>
                <g transform="matrix(-5.05848e-17,0.826113,0.817647,5.00664e-17,1036.74,284.789)">
                    <path d="M187.731,100.651L187.731,359.53C187.731,369.534 179.693,377.655 169.792,377.655L133.914,377.655C124.013,377.655 115.975,369.534 115.975,359.53L115.975,100.651C115.975,90.648 124.013,82.526 133.914,82.526L169.792,82.526C179.693,82.526 187.731,90.648 187.731,100.651Z" style="fill:rgb(255,158,161);"/>
                </g>
                <g transform="matrix(1,0,0,0.875613,1157.8,308.336)">
                    <path d="M187.731,98.917L187.731,361.265C187.731,370.311 181.301,377.655 173.38,377.655L130.326,377.655C122.405,377.655 115.975,370.311 115.975,361.265L115.975,98.917C115.975,89.871 122.405,82.526 130.326,82.526L173.38,82.526C181.301,82.526 187.731,89.871 187.731,98.917Z" style="fill:rgb(251,234,168);"/>
                </g>
                <g transform="matrix(1,0,0,1,988.246,261.36)">
                    <ellipse cx="115.975" cy="364.056" rx="71.757" ry="69.731" style="fill:rgb(135,189,207);"/>
                </g>
                <g transform="matrix(1,0,0,1,1157.8,261.36)">
                    <ellipse cx="115.975" cy="364.056" rx="71.757" ry="69.731" style="fill:rgb(255,158,161);"/>
                </g>
            </g>
            <g transform="matrix(0.480723,0,0,0.505485,4605.56,84.3603)">
                <g transform="matrix(1,0,0,0.875613,988.246,308.336)">
                    <path d="M187.731,103.014L187.731,357.168C187.731,368.475 179.693,377.655 169.792,377.655L133.914,377.655C124.013,377.655 115.975,368.475 115.975,357.168L115.975,103.014C115.975,91.707 124.013,82.526 133.914,82.526L169.792,82.526C179.693,82.526 187.731,91.707 187.731,103.014Z" style="fill:rgb(29,29,30);"/>
                </g>
                <g transform="matrix(-5.05848e-17,0.826113,0.817647,5.00664e-17,1036.74,284.789)">
                    <path d="M187.731,100.651L187.731,359.53C187.731,369.534 179.693,377.655 169.792,377.655L133.914,377.655C124.013,377.655 115.975,369.534 115.975,359.53L115.975,100.651C115.975,90.648 124.013,82.526 133.914,82.526L169.792,82.526C179.693,82.526 187.731,90.648 187.731,100.651Z" style="fill:rgb(29,29,30);"/>
                </g>
                <g transform="matrix(1,0,0,0.581821,1157.8,419.288)">
                    <path d="M187.731,107.193L187.731,352.989C187.731,366.603 181.301,377.655 173.38,377.655L130.326,377.655C122.405,377.655 115.975,366.603 115.975,352.989L115.975,107.193C115.975,93.579 122.405,82.526 130.326,82.526L173.38,82.526C181.301,82.526 187.731,93.579 187.731,107.193Z" style="fill:rgb(29,29,30);"/>
                </g>
                <g transform="matrix(1,0,0,1,988.246,261.36)">
                    <ellipse cx="115.975" cy="364.056" rx="71.757" ry="69.731" style="fill:rgb(29,29,30);"/>
                </g>
                <g transform="matrix(1,0,0,1,1157.8,261.36)">
                    <ellipse cx="115.975" cy="364.056" rx="71.757" ry="69.731" style="fill:rgb(29,29,30);"/>
                </g>
            </g>
        </g>
        <g transform="matrix(0.19846,0,0,0.19846,603.681,-630.269)">
            <path d="M3764.89,4372.77C3762.17,4372.77 3760.08,4372.01 3758.62,4370.49C3757.16,4368.97 3756.43,4366.81 3756.43,4364.01L3756.43,4287.59C3756.43,4284.74 3757.16,4282.59 3758.62,4281.13C3760.08,4279.67 3762.13,4278.94 3764.78,4278.94C3767.43,4278.94 3769.47,4279.67 3770.9,4281.13C3772.34,4282.59 3773.05,4284.74 3773.05,4287.59L3773.05,4303.47L3770.99,4300.16C3773.39,4293.31 3777.23,4287.99 3782.52,4284.22C3787.82,4280.45 3794.16,4278.57 3801.55,4278.57C3809.22,4278.57 3815.43,4280.4 3820.2,4284.07C3824.97,4287.75 3828.19,4293.35 3829.85,4300.9L3827.16,4300.9C3829.45,4294.03 3833.48,4288.59 3839.24,4284.58C3845.01,4280.57 3851.76,4278.57 3859.5,4278.57C3866.34,4278.57 3872,4279.9 3876.47,4282.57C3880.95,4285.24 3884.31,4289.24 3886.56,4294.59C3888.81,4299.94 3889.93,4306.7 3889.93,4314.88L3889.93,4364.01C3889.93,4366.81 3889.18,4368.97 3887.68,4370.49C3886.19,4372.01 3884.08,4372.77 3881.36,4372.77C3878.64,4372.77 3876.54,4372.01 3875.08,4370.49C3873.62,4368.97 3872.9,4366.81 3872.9,4364.01L3872.9,4315.74C3872.9,4307.68 3871.51,4301.77 3868.74,4298.02C3865.97,4294.26 3861.33,4292.38 3854.82,4292.38C3847.68,4292.38 3842.03,4294.87 3837.88,4299.84C3833.72,4304.81 3831.64,4311.58 3831.64,4320.16L3831.64,4364.01C3831.64,4366.81 3830.91,4368.97 3829.45,4370.49C3827.99,4372.01 3825.9,4372.77 3823.18,4372.77C3820.46,4372.77 3818.35,4372.01 3816.85,4370.49C3815.36,4368.97 3814.61,4366.81 3814.61,4364.01L3814.61,4315.74C3814.61,4307.68 3813.22,4301.77 3810.45,4298.02C3807.69,4294.26 3803.08,4292.38 3796.64,4292.38C3789.51,4292.38 3783.86,4294.87 3779.7,4299.84C3775.54,4304.81 3773.46,4311.58 3773.46,4320.16L3773.46,4364.01C3773.46,4369.85 3770.6,4372.77 3764.89,4372.77Z" style="fill:white;fill-rule:nonzero;"/>
            <path d="M3932.14,4373.15C3924.73,4373.15 3918.58,4371.78 3913.69,4369.05C3908.8,4366.32 3905.15,4362.25 3902.74,4356.84C3900.34,4351.43 3899.14,4344.69 3899.14,4336.64L3899.14,4287.59C3899.14,4284.67 3899.87,4282.5 3901.32,4281.07C3902.78,4279.65 3904.87,4278.94 3907.6,4278.94C3910.32,4278.94 3912.42,4279.65 3913.92,4281.07C3915.42,4282.5 3916.16,4284.67 3916.16,4287.59L3916.16,4336.56C3916.16,4344.27 3917.73,4349.99 3920.86,4353.73C3924,4357.46 3928.97,4359.33 3935.78,4359.33C3943.2,4359.33 3949.24,4356.82 3953.93,4351.8C3958.61,4346.77 3960.95,4340.15 3960.95,4331.91L3960.95,4287.59C3960.95,4284.67 3961.68,4282.5 3963.14,4281.07C3964.6,4279.65 3966.69,4278.94 3969.41,4278.94C3972.14,4278.94 3974.24,4279.65 3975.74,4281.07C3977.24,4282.5 3977.99,4284.67 3977.99,4287.59L3977.99,4364.01C3977.99,4369.85 3975.23,4372.77 3969.71,4372.77C3967.07,4372.77 3965.01,4372.01 3963.55,4370.49C3962.09,4368.97 3961.36,4366.81 3961.36,4364.01L3961.36,4347.56L3963.83,4350.88C3961.31,4358.08 3957.26,4363.59 3951.68,4367.41C3946.09,4371.24 3939.58,4373.15 3932.14,4373.15Z" style="fill:white;fill-rule:nonzero;"/>
            <path d="M4022.58,4373.15C4014.55,4373.15 4007.5,4371.23 4001.45,4367.38C3995.4,4363.54 3990.7,4358.06 3987.36,4350.93C3984.01,4343.81 3982.34,4335.43 3982.34,4325.8C3982.34,4316.04 3984,4307.65 3987.32,4300.63C3990.64,4293.6 3995.32,4288.17 4001.38,4284.33C4007.43,4280.49 4014.5,4278.57 4022.58,4278.57C4030.66,4278.57 4037.62,4280.59 4043.48,4284.64C4049.34,4288.69 4053.26,4294.1 4055.26,4300.88L4053.2,4300.88L4053.2,4246.77C4053.2,4243.93 4053.93,4241.77 4055.39,4240.31C4056.85,4238.85 4058.94,4238.12 4061.66,4238.12C4064.38,4238.12 4066.49,4238.85 4067.99,4240.31C4069.48,4241.77 4070.23,4243.93 4070.23,4246.77L4070.23,4364.01C4070.23,4366.81 4069.5,4368.97 4068.04,4370.49C4066.58,4372.01 4064.49,4372.77 4061.77,4372.77C4059.05,4372.77 4056.96,4372.01 4055.5,4370.49C4054.04,4368.97 4053.31,4366.81 4053.31,4364.01L4053.31,4346.96L4055.37,4350.27C4053.45,4357.22 4049.54,4362.77 4043.64,4366.92C4037.75,4371.07 4030.73,4373.15 4022.58,4373.15ZM4026.53,4359.66C4031.96,4359.66 4036.71,4358.36 4040.76,4355.76C4044.82,4353.15 4047.96,4349.33 4050.17,4344.28C4052.39,4339.24 4053.5,4333.08 4053.5,4325.8C4053.5,4314.8 4051.06,4306.42 4046.17,4300.67C4041.29,4294.93 4034.74,4292.05 4026.53,4292.05C4021.09,4292.05 4016.35,4293.34 4012.29,4295.9C4008.24,4298.47 4005.1,4302.26 4002.88,4307.28C4000.67,4312.3 3999.56,4318.47 3999.56,4325.8C3999.56,4336.73 4002.01,4345.11 4006.92,4350.93C4011.83,4356.75 4018.37,4359.66 4026.53,4359.66Z" style="fill:white;fill-rule:nonzero;"/>
            <path d="M4099.57,4243.09L4099.57,4259.36C4099.57,4262.46 4098.64,4264.9 4096.78,4266.67C4094.92,4268.44 4092.23,4269.33 4088.71,4269.33C4085.31,4269.33 4082.65,4268.44 4080.73,4266.67C4078.81,4264.9 4077.85,4262.46 4077.85,4259.36C4077.85,4256.13 4078.81,4253.67 4080.73,4251.98C4082.65,4250.3 4085.31,4249.45 4088.71,4249.45L4088.71,4243.09C4088.71,4240.31 4090.97,4238.05 4093.74,4238.05L4094.53,4238.05C4097.31,4238.05 4099.57,4240.31 4099.57,4243.09ZM4088.52,4372.43C4085.8,4372.43 4083.71,4371.61 4082.25,4369.98C4080.79,4368.35 4080.06,4366.1 4080.06,4363.23L4080.06,4288.48C4080.06,4285.49 4080.79,4283.21 4082.25,4281.64C4083.71,4280.07 4085.8,4279.28 4088.52,4279.28C4091.24,4279.28 4093.35,4280.07 4094.84,4281.64C4096.34,4283.21 4097.09,4285.49 4097.09,4288.48L4097.09,4363.23C4097.09,4366.1 4096.37,4368.35 4094.94,4369.98C4093.5,4371.61 4091.36,4372.43 4088.52,4372.43Z" style="fill:white;"/>
            <path d="M4115.28,4372.77C4112.56,4372.77 4110.47,4372.01 4109.01,4370.49C4107.55,4368.97 4106.82,4366.81 4106.82,4364.01L4106.82,4246.77C4106.82,4243.93 4107.55,4241.77 4109.01,4240.31C4110.47,4238.85 4112.56,4238.12 4115.28,4238.12C4118.01,4238.12 4120.11,4238.85 4121.61,4240.31C4123.11,4241.77 4123.86,4243.93 4123.86,4246.77L4123.86,4320.44L4124.23,4320.44L4160.94,4284.73C4162.82,4282.9 4164.5,4281.47 4165.96,4280.46C4167.42,4279.45 4169.37,4278.94 4171.79,4278.94C4174.12,4278.94 4175.9,4279.55 4177.15,4280.78C4178.41,4282 4179.02,4283.49 4178.99,4285.25C4178.97,4287.01 4178.09,4288.79 4176.35,4290.6L4137.42,4328.41L4137.42,4319.9L4179.92,4360.92C4181.76,4362.73 4182.64,4364.55 4182.58,4366.4C4182.52,4368.24 4181.83,4369.77 4180.49,4370.97C4179.16,4372.17 4177.44,4372.77 4175.34,4372.77C4172.81,4372.77 4170.78,4372.27 4169.23,4371.25C4167.68,4370.24 4165.89,4368.69 4163.85,4366.61L4124.23,4329.17L4123.86,4329.17L4123.86,4364.01C4123.86,4369.85 4121,4372.77 4115.28,4372.77Z" style="fill:white;fill-rule:nonzero;"/>
            <path d="M4220.26,4373.15C4211.28,4373.15 4203.49,4371.21 4196.89,4367.35C4190.29,4363.48 4185.16,4357.99 4181.53,4350.89C4177.89,4343.8 4176.07,4335.43 4176.07,4325.8C4176.07,4318.54 4177.1,4312.02 4179.15,4306.24C4181.21,4300.47 4184.18,4295.5 4188.07,4291.35C4191.96,4287.19 4196.62,4284.02 4202.05,4281.84C4207.49,4279.66 4213.55,4278.57 4220.26,4278.57C4229.23,4278.57 4237.02,4280.5 4243.62,4284.37C4250.23,4288.24 4255.35,4293.7 4258.98,4300.76C4262.62,4307.82 4264.44,4316.17 4264.44,4325.8C4264.44,4333.06 4263.41,4339.6 4261.36,4345.41C4259.31,4351.23 4256.33,4356.21 4252.44,4360.36C4248.56,4364.52 4243.91,4367.69 4238.5,4369.87C4233.09,4372.06 4227.01,4373.15 4220.26,4373.15ZM4220.26,4359.66C4225.69,4359.66 4230.44,4358.36 4234.49,4355.76C4238.55,4353.15 4241.69,4349.33 4243.9,4344.28C4246.12,4339.24 4247.23,4333.08 4247.23,4325.8C4247.23,4314.8 4244.78,4306.42 4239.9,4300.67C4235.02,4294.93 4228.47,4292.05 4220.26,4292.05C4214.82,4292.05 4210.08,4293.34 4206.02,4295.9C4201.97,4298.47 4198.83,4302.26 4196.61,4307.28C4194.4,4312.3 4193.29,4318.47 4193.29,4325.8C4193.29,4336.73 4195.74,4345.11 4200.65,4350.93C4205.56,4356.75 4212.09,4359.66 4220.26,4359.66Z" style="fill:white;fill-rule:nonzero;"/>
        </g>
    </g>
</svg>
