<?xml version="1.0" encoding="UTF-8" standalone="no"?>
<!DOCTYPE svg PUBLIC "-//W3C//DTD SVG 1.1//EN" "http://www.w3.org/Graphics/SVG/1.1/DTD/svg11.dtd">
<svg width="100%" height="100%" viewBox="0 0 512 507" version="1.1" xmlns="http://www.w3.org/2000/svg" xmlns:xlink="http://www.w3.org/1999/xlink" xml:space="preserve" xmlns:serif="http://www.serif.com/" style="fill-rule:evenodd;clip-rule:evenodd;stroke-linejoin:round;stroke-miterlimit:2;">
    <g transform="matrix(3.95339,0,0,3.95339,-2649.13,-9725.32)">
        <g transform="matrix(0.391943,0,0,0.391943,272.229,2315.65)">
            <g transform="matrix(1,0,0,0.875613,988.246,308.336)">
                <path d="M187.731,103.014L187.731,357.168C187.731,368.475 179.693,377.655 169.792,377.655L133.914,377.655C124.013,377.655 115.975,368.475 115.975,357.168L115.975,103.014C115.975,91.707 124.013,82.526 133.914,82.526L169.792,82.526C179.693,82.526 187.731,91.707 187.731,103.014Z" style="fill:rgb(227,220,245);"/>
            </g>
            <g transform="matrix(-5.05848e-17,0.826113,0.817647,5.00664e-17,1036.74,284.789)">
                <path d="M187.731,100.651L187.731,359.53C187.731,369.534 179.693,377.655 169.792,377.655L133.914,377.655C124.013,377.655 115.975,369.534 115.975,359.53L115.975,100.651C115.975,90.648 124.013,82.526 133.914,82.526L169.792,82.526C179.693,82.526 187.731,90.648 187.731,100.651Z" style="fill:rgb(255,158,161);"/>
            </g>
            <g transform="matrix(1,0,0,0.875613,1157.8,308.336)">
                <path d="M187.731,98.917L187.731,361.265C187.731,370.311 181.301,377.655 173.38,377.655L130.326,377.655C122.405,377.655 115.975,370.311 115.975,361.265L115.975,98.917C115.975,89.871 122.405,82.526 130.326,82.526L173.38,82.526C181.301,82.526 187.731,89.871 187.731,98.917Z" style="fill:rgb(251,234,168);"/>
            </g>
            <g transform="matrix(1,0,0,1,988.246,261.36)">
                <ellipse cx="115.975" cy="364.056" rx="71.757" ry="69.731" style="fill:rgb(135,189,207);"/>
            </g>
            <g transform="matrix(1,0,0,1,1157.8,261.36)">
                <ellipse cx="115.975" cy="364.056" rx="71.757" ry="69.731" style="fill:rgb(255,158,161);"/>
            </g>
        </g>
        <g transform="matrix(0.391943,0,0,0.391943,265.425,2310.83)">
            <g transform="matrix(1,0,0,0.875613,988.246,308.336)">
                <path d="M187.731,103.014L187.731,357.168C187.731,368.475 179.693,377.655 169.792,377.655L133.914,377.655C124.013,377.655 115.975,368.475 115.975,357.168L115.975,103.014C115.975,91.707 124.013,82.526 133.914,82.526L169.792,82.526C179.693,82.526 187.731,91.707 187.731,103.014Z" style="fill:rgb(29,29,30);"/>
            </g>
            <g transform="matrix(-5.05848e-17,0.826113,0.817647,5.00664e-17,1036.74,284.789)">
                <path d="M187.731,100.651L187.731,359.53C187.731,369.534 179.693,377.655 169.792,377.655L133.914,377.655C124.013,377.655 115.975,369.534 115.975,359.53L115.975,100.651C115.975,90.648 124.013,82.526 133.914,82.526L169.792,82.526C179.693,82.526 187.731,90.648 187.731,100.651Z" style="fill:rgb(29,29,30);"/>
            </g>
            <g transform="matrix(1,0,0,0.581821,1157.8,419.288)">
                <path d="M187.731,107.193L187.731,352.989C187.731,366.603 181.301,377.655 173.38,377.655L130.326,377.655C122.405,377.655 115.975,366.603 115.975,352.989L115.975,107.193C115.975,93.579 122.405,82.526 130.326,82.526L173.38,82.526C181.301,82.526 187.731,93.579 187.731,107.193Z" style="fill:rgb(29,29,30);"/>
            </g>
            <g transform="matrix(1,0,0,1,988.246,261.36)">
                <ellipse cx="115.975" cy="364.056" rx="71.757" ry="69.731" style="fill:rgb(29,29,30);"/>
            </g>
            <g transform="matrix(1,0,0,1,1157.8,261.36)">
                <ellipse cx="115.975" cy="364.056" rx="71.757" ry="69.731" style="fill:rgb(29,29,30);"/>
            </g>
        </g>
    </g>
</svg>
