<?xml version="1.0" encoding="UTF-8" standalone="no"?>
<!DOCTYPE svg PUBLIC "-//W3C//DTD SVG 1.1//EN" "http://www.w3.org/Graphics/SVG/1.1/DTD/svg11.dtd">
<svg width="100%" height="100%" viewBox="0 0 71 131" version="1.1" xmlns="http://www.w3.org/2000/svg" xmlns:xlink="http://www.w3.org/1999/xlink" xml:space="preserve" xmlns:serif="http://www.serif.com/" style="fill-rule:evenodd;clip-rule:evenodd;stroke-linejoin:round;stroke-miterlimit:2;">
    <g transform="matrix(1,0,0,1,-78.8986,-355.35)">
        <path d="M149.21,453.394C149.215,453.504 149.218,453.615 149.221,453.725C149.703,470.7 135.778,485.033 118.143,485.713C100.508,486.392 85.8,473.163 85.317,456.188C84.835,439.214 98.76,424.881 116.395,424.201L114.809,368.404C114.709,364.91 117.492,361.963 121.019,361.827L140.19,361.089C143.717,360.953 146.661,363.679 146.76,367.172L149.21,453.394Z" style="fill:rgb(227,220,245);"/>
    </g>
    <g transform="matrix(1,0,0,1,-78.8986,-355.35)">
        <path d="M142.804,447.661C142.809,447.771 142.811,447.882 142.814,447.992C143.297,464.967 129.372,479.3 111.737,479.98C94.102,480.659 79.393,467.43 78.911,450.455C78.428,433.48 92.354,419.147 109.989,418.468L108.403,362.671C108.303,359.177 111.086,356.23 114.613,356.094L133.784,355.355C137.311,355.22 140.255,357.946 140.354,361.439L142.804,447.661Z" style="fill:rgb(29,29,30);"/>
    </g>
</svg>
