<?xml version="1.0" encoding="UTF-8" standalone="no"?>
<!DOCTYPE svg PUBLIC "-//W3C//DTD SVG 1.1//EN" "http://www.w3.org/Graphics/SVG/1.1/DTD/svg11.dtd">
<svg width="100%" height="100%" viewBox="0 0 170 160" version="1.1" xmlns="http://www.w3.org/2000/svg" xmlns:xlink="http://www.w3.org/1999/xlink" xml:space="preserve" xmlns:serif="http://www.serif.com/" style="fill-rule:evenodd;clip-rule:evenodd;stroke-linejoin:round;stroke-miterlimit:2;">
    <g transform="matrix(1,0,0,1,-7.45244,-74.1302)">
        <path d="M76.624,187.972C76.523,188.357 76.413,188.74 76.293,189.122C71.514,204.443 53.922,212.124 37.035,206.265C20.147,200.406 10.317,183.211 15.096,167.89C19.876,152.57 37.467,144.889 54.355,150.748L74.259,86.949C75.275,83.692 78.931,82.031 82.419,83.241L172.68,114.557C176.168,115.767 178.175,119.393 177.159,122.649L173.478,134.448C172.463,137.704 168.806,139.365 165.318,138.155L99.336,115.263L76.832,187.395C76.771,187.592 76.701,187.785 76.624,187.972ZM148.659,214.002C148.638,214.07 148.617,214.139 148.595,214.207C143.816,229.527 126.225,237.209 109.336,231.35C92.448,225.491 82.618,208.295 87.398,192.975C92.177,177.654 109.769,169.973 126.657,175.832L135.851,146.362C136.834,143.209 140.375,141.601 143.752,142.773L162.112,149.142C165.489,150.314 167.433,153.825 166.449,156.978L148.689,213.908C148.679,213.939 148.669,213.97 148.659,214.002Z" style="fill:rgb(255,158,161);"/>
    </g>
    <g transform="matrix(1,0,0,1,-7.45244,-74.1302)">
        <path d="M70.189,179.256C70.087,179.641 69.977,180.024 69.858,180.407C65.078,195.727 47.487,203.409 30.599,197.55C13.711,191.691 3.881,174.495 8.661,159.175C13.44,143.854 31.031,136.173 47.919,142.032L67.823,78.233C68.839,74.977 72.495,73.316 75.983,74.525L166.245,105.841C169.732,107.051 171.74,110.677 170.724,113.934L167.043,125.732C166.027,128.988 162.37,130.649 158.883,129.439L92.9,106.547L70.397,178.679C70.335,178.877 70.266,179.069 70.189,179.256ZM142.223,205.286C142.202,205.355 142.181,205.423 142.16,205.491C137.38,220.812 119.789,228.493 102.901,222.634C86.013,216.775 76.183,199.58 80.962,184.259C85.742,168.939 103.333,161.258 120.221,167.117L129.415,137.647C130.399,134.494 133.94,132.885 137.317,134.057L155.676,140.427C159.054,141.598 160.997,145.11 160.014,148.263L142.253,205.192C142.243,205.224 142.233,205.255 142.223,205.286Z" style="fill:rgb(29,29,30);"/>
    </g>
</svg>
