<?xml version="1.0" encoding="UTF-8" standalone="no"?>
<!DOCTYPE svg PUBLIC "-//W3C//DTD SVG 1.1//EN" "http://www.w3.org/Graphics/SVG/1.1/DTD/svg11.dtd">
<svg width="100%" height="100%" viewBox="0 0 136 133" version="1.1" xmlns="http://www.w3.org/2000/svg" xmlns:xlink="http://www.w3.org/1999/xlink" xml:space="preserve" xmlns:serif="http://www.serif.com/" style="fill-rule:evenodd;clip-rule:evenodd;stroke-linejoin:round;stroke-miterlimit:2;">
    <g transform="matrix(1,0,0,1,-660.931,-306.828)">
        <path d="M727.852,407.31C727.979,407.635 728.099,407.962 728.212,408.293C732.732,421.548 723.641,435.175 707.923,438.703C692.205,442.231 675.774,434.334 671.254,421.079C666.734,407.824 675.825,394.197 691.544,390.669L672.721,335.47C671.761,332.652 673.616,329.774 676.862,329.045L760.872,310.187C764.118,309.458 767.533,311.153 768.494,313.971L771.975,324.179C772.936,326.996 771.08,329.875 767.834,330.604L706.422,344.389L727.702,406.798C727.761,406.969 727.81,407.14 727.852,407.31ZM795.445,393.01C795.465,393.069 795.486,393.128 795.506,393.187C800.026,406.442 790.934,420.068 775.216,423.597C759.498,427.125 743.067,419.228 738.547,405.973C734.027,392.718 743.119,379.091 758.837,375.563L750.143,350.065C749.213,347.337 751.01,344.55 754.153,343.844L771.24,340.008C774.384,339.303 777.692,340.944 778.622,343.672L795.418,392.928C795.427,392.955 795.436,392.982 795.445,393.01Z" style="fill:rgb(135,189,207);"/>
    </g>
    <g transform="matrix(1,0,0,1,-660.931,-306.828)">
        <path d="M718.689,404.121C718.816,404.445 718.936,404.772 719.049,405.103C723.569,418.358 714.478,431.985 698.76,435.513C683.041,439.042 666.611,431.144 662.091,417.889C657.571,404.634 666.662,391.008 682.381,387.479L663.558,332.28C662.598,329.463 664.453,326.584 667.699,325.855L751.709,306.997C754.955,306.268 758.37,307.964 759.331,310.781L762.812,320.989C763.772,323.806 761.917,326.685 758.671,327.414L697.259,341.2L718.539,403.609C718.598,403.779 718.647,403.95 718.689,404.121ZM786.282,389.82C786.302,389.879 786.323,389.938 786.343,389.997C790.863,403.252 781.771,416.879 766.053,420.407C750.335,423.936 733.904,416.038 729.384,402.783C724.864,389.528 733.956,375.902 749.674,372.373L740.98,346.876C740.049,344.148 741.847,341.36 744.99,340.654L762.077,336.819C765.221,336.113 768.529,337.755 769.459,340.483L786.254,389.738C786.264,389.765 786.273,389.793 786.282,389.82Z" style="fill:rgb(29,29,30);"/>
    </g>
</svg>
