<svg width="74" height="75" viewBox="0 0 74 75" fill="none" xmlns="http://www.w3.org/2000/svg">
<rect x="0.32666" y="0.75" width="73.1842" height="74.25" rx="5" fill="#575757"/>
<path d="M36.9042 50.464C36.2002 50.464 35.6562 50.272 35.2722 49.888C34.8882 49.472 34.6962 48.912 34.6962 48.208V40.336H26.9682C26.2962 40.336 25.7682 40.16 25.3842 39.808C25.0002 39.424 24.8082 38.896 24.8082 38.224C24.8082 37.552 25.0002 37.04 25.3842 36.688C25.7682 36.304 26.2962 36.112 26.9682 36.112H34.6962V28.48C34.6962 27.776 34.8882 27.232 35.2722 26.848C35.6562 26.464 36.2162 26.272 36.9522 26.272C37.6562 26.272 38.1842 26.464 38.5362 26.848C38.9202 27.232 39.1122 27.776 39.1122 28.48V36.112H46.8402C47.5442 36.112 48.0722 36.304 48.4242 36.688C48.8082 37.04 49.0002 37.552 49.0002 38.224C49.0002 38.896 48.8082 39.424 48.4242 39.808C48.0722 40.16 47.5442 40.336 46.8402 40.336H39.1122V48.208C39.1122 48.912 38.9202 49.472 38.5362 49.888C38.1842 50.272 37.6402 50.464 36.9042 50.464Z" fill="white"/>
</svg>
