<svg width="59" height="57" viewBox="0 0 59 57" fill="none" xmlns="http://www.w3.org/2000/svg">
<path d="M29.5679 56.6045C21.7558 56.6045 14.4108 53.7863 8.8867 48.6686C3.36257 43.5512 0.320312 36.7471 0.320312 29.5099C0.320312 22.2727 3.36257 15.4686 8.8867 10.3512C14.4109 5.2337 21.7558 2.41541 29.5679 2.41541C37.3801 2.41541 44.7254 5.2337 50.2489 10.3512C55.7733 15.4686 58.8155 22.2727 58.8155 29.5099C58.8155 36.7471 55.7733 43.5512 50.2489 48.6686C44.7254 53.7863 37.3801 56.6045 29.5679 56.6045ZM29.5679 4.63537C22.3954 4.63537 15.6528 7.2228 10.5813 11.9209C5.50973 16.619 2.71678 22.8656 2.71678 29.5099C2.71678 36.1541 5.50982 42.4007 10.5813 47.0988C15.6527 51.7968 22.3954 54.3846 29.5679 54.3846C36.7405 54.3846 43.4834 51.7968 48.5546 47.0988C53.6258 42.4007 56.4192 36.1541 56.4192 29.5099C56.4192 22.8656 53.6258 16.6191 48.5546 11.9209C43.4834 7.22272 36.7405 4.63537 29.5679 4.63537Z" fill="#E2E2E2"/>
<path d="M29.5679 54.4684C21.7558 54.4684 14.4109 51.6493 8.8867 46.5322C3.36257 41.4146 0.320312 34.6106 0.320312 27.3734C0.320312 20.1362 3.36257 13.3322 8.8867 8.21463C14.4109 3.09717 21.7558 0.27887 29.5679 0.27887C37.3801 0.27887 44.7254 3.09717 50.2489 8.21463C55.7733 13.3322 58.8155 20.1362 58.8155 27.3734C58.8155 34.6106 55.7733 41.4146 50.2489 46.5322C44.7254 51.6493 37.3801 54.4684 29.5679 54.4684ZM29.5679 2.49883C22.3954 2.49883 15.6528 5.08626 10.5813 9.78438C5.50973 14.4825 2.71678 20.7291 2.71678 27.3733C2.71678 34.0175 5.50982 40.2641 10.5813 44.9622C15.6527 49.6604 22.3954 52.2476 29.5679 52.2476C36.7405 52.2476 43.4834 49.6604 48.5546 44.9622C53.6258 40.2641 56.4192 34.0175 56.4192 27.3733C56.4192 20.7291 53.6258 14.4826 48.5546 9.78438C43.4834 5.08618 36.7405 2.49883 29.5679 2.49883Z" fill="#E5B92C"/>
<path d="M20.4576 27.2177C22.5662 27.2177 24.2756 25.1259 24.2756 22.5455C24.2756 19.9651 22.5662 17.8732 20.4576 17.8732C18.349 17.8732 16.6396 19.9651 16.6396 22.5455C16.6396 25.1259 18.349 27.2177 20.4576 27.2177Z" fill="#E5B92C"/>
<path d="M39.4654 27.2177C41.574 27.2177 43.2834 25.1259 43.2834 22.5455C43.2834 19.9651 41.574 17.8732 39.4654 17.8732C37.3568 17.8732 35.6475 19.9651 35.6475 22.5455C35.6475 25.1259 37.3568 27.2177 39.4654 27.2177Z" fill="#E5B92C"/>
<path d="M39.9301 38.8516H20.4531C19.7913 38.8516 19.2549 38.3546 19.2549 37.7416C19.2549 37.1285 19.7913 36.6315 20.4531 36.6315H39.9301C40.5922 36.6315 41.1287 37.1285 41.1287 37.7416C41.1278 38.3546 40.5913 38.8516 39.9301 38.8516Z" fill="#E5B92C"/>
</svg>