<svg width="73" height="70" viewBox="0 0 73 70" fill="none" xmlns="http://www.w3.org/2000/svg">
<path d="M36.0859 70C26.4469 70 17.385 66.4976 10.5693 60.1375C3.75355 53.7777 0 45.3217 0 36.3275C0 27.3332 3.75355 18.8774 10.5693 12.5175C17.385 6.15766 26.4471 2.65515 36.0859 2.65515C45.7248 2.65515 54.7867 6.15766 61.6025 12.5175C68.4181 18.8774 72.1717 27.3332 72.1717 36.3275C72.1717 45.3217 68.4181 53.7777 61.6025 60.1375C54.7868 66.4976 45.7248 70 36.0859 70ZM36.0859 5.41407C27.2368 5.41407 18.9173 8.62966 12.66 14.4684C6.40272 20.3071 2.95677 28.0702 2.95677 36.3275C2.95677 44.5847 6.40283 52.3478 12.66 58.1865C18.9172 64.0251 27.2367 67.2412 36.0859 67.2412C44.9351 67.2412 53.2545 64.0251 59.5117 58.1865C65.7689 52.3478 69.2149 44.5847 69.2149 36.3275C69.2149 28.0702 65.7689 20.3072 59.5117 14.4684C53.2545 8.62956 44.935 5.41407 36.0859 5.41407Z" fill="#3D3D3D"/>
<path d="M36.0859 67.3453C26.4471 67.3453 17.385 63.8419 10.5693 57.4825C3.75355 51.1225 0 42.6666 0 33.6724C0 24.6781 3.75355 16.2222 10.5693 9.86237C17.385 3.50252 26.4471 0 36.0859 0C45.7248 0 54.7867 3.50252 61.6025 9.86237C68.4181 16.2223 72.1717 24.6782 72.1717 33.6724C72.1717 42.6666 68.4181 51.1225 61.6025 57.4825C54.7866 63.8419 45.7248 67.3453 36.0859 67.3453ZM36.0859 2.75892C27.2368 2.75892 18.9173 5.97451 12.66 11.8132C6.40272 17.6519 2.95677 25.415 2.95677 33.6723C2.95677 41.9296 6.40283 49.6927 12.66 55.5314C18.9172 61.3701 27.2367 64.5855 36.0859 64.5855C44.9351 64.5855 53.2545 61.3701 59.5117 55.5314C65.7689 49.6927 69.2149 41.9296 69.2149 33.6723C69.2149 25.415 65.7689 17.652 59.5117 11.8132C53.2545 5.9744 44.935 2.75892 36.0859 2.75892Z" fill="#43AF64"/>
<path d="M24.8463 33.4783C27.4479 33.4783 29.557 30.8786 29.557 27.6718C29.557 24.4649 27.4479 21.8652 24.8463 21.8652C22.2448 21.8652 20.1357 24.4649 20.1357 27.6718C20.1357 30.8786 22.2448 33.4783 24.8463 33.4783Z" fill="#43AF64"/>
<path d="M48.2965 33.4783C50.8981 33.4783 53.0071 30.8786 53.0071 27.6718C53.0071 24.4649 50.8981 21.8652 48.2965 21.8652C45.6949 21.8652 43.5859 24.4649 43.5859 27.6718C43.5859 30.8786 45.6949 33.4783 48.2965 33.4783Z" fill="#43AF64"/>
<path d="M36.0846 52.1121C30.2123 52.1121 25.2307 50.1152 21.2782 46.1769C20.7201 45.6208 20.7508 44.7479 21.3468 44.227C21.9429 43.7064 22.8785 43.735 23.4363 44.2911C26.8074 47.65 31.0629 49.3532 36.0845 49.3532C41.1062 49.3532 45.3615 47.65 48.7325 44.2911C49.2909 43.7351 50.226 43.7062 50.822 44.227C51.418 44.7478 51.4487 45.6208 50.8907 46.1769C46.994 50.0598 41.8742 52.1121 36.0846 52.1121Z" fill="#43AF64"/>
</svg>