<svg width="23" height="23" viewBox="0 0 23 23" fill="none" xmlns="http://www.w3.org/2000/svg">
<g clip-path="url(#clip0_43_408)">
<path d="M11.2628 22.4438C8.31078 22.4438 5.53518 21.3525 3.448 19.3709C1.36049 17.3894 0.210938 14.7547 0.210938 11.9524C0.210938 9.15005 1.36049 6.51544 3.448 4.53389C5.53518 2.55234 8.31078 1.46106 11.2628 1.46106C14.2148 1.46106 16.9904 2.55234 19.0775 4.53389C21.1651 6.51544 22.3146 9.15005 22.3146 11.9524C22.3146 14.7547 21.1651 17.3894 19.0775 19.3709C16.9904 21.3525 14.2148 22.4438 11.2628 22.4438ZM11.2628 2.32066C8.55245 2.32066 6.0045 3.32255 4.08824 5.14172C2.17198 6.9609 1.11643 9.37966 1.11643 11.9524C1.11643 14.5251 2.17198 16.9439 4.08824 18.7631C6.0045 20.5822 8.55245 21.5842 11.2628 21.5842C13.9731 21.5842 16.521 20.5822 18.4373 18.7631C20.3536 16.9439 21.4091 14.5251 21.4091 11.9524C21.4091 9.37966 20.3536 6.96093 18.4373 5.14172C16.521 3.32251 13.9731 2.32066 11.2628 2.32066Z" fill="#E2E2E2"/>
<path d="M11.2628 21.6167C8.31078 21.6167 5.53518 20.5251 3.448 18.5437C1.36049 16.5621 0.210938 13.9275 0.210938 11.1252C0.210938 8.32281 1.36049 5.6882 3.448 3.70662C5.53518 1.72507 8.31078 0.633789 11.2628 0.633789C14.2148 0.633789 16.9904 1.72507 19.0775 3.70662C21.1651 5.68817 22.3146 8.32278 22.3146 11.1252C22.3146 13.9275 21.1651 16.5621 19.0775 18.5437C16.9904 20.5251 14.2148 21.6167 11.2628 21.6167ZM11.2628 1.49339C8.55245 1.49339 6.0045 2.49528 4.08824 4.31445C2.17198 6.13362 1.11643 8.55239 1.11643 11.1251C1.11643 13.6979 2.17198 16.1166 4.08824 17.9358C6.0045 19.755 8.55245 20.7568 11.2628 20.7568C13.9731 20.7568 16.521 19.755 18.4373 17.9358C20.3536 16.1166 21.4091 13.6979 21.4091 11.1251C21.4091 8.55239 20.3536 6.13366 18.4373 4.31445C16.521 2.49524 13.9731 1.49339 11.2628 1.49339Z" fill="#C94545"/>
<path d="M7.82063 11.0648C8.61741 11.0648 9.26333 10.2548 9.26333 9.25568C9.26333 8.25652 8.61741 7.44653 7.82063 7.44653C7.02385 7.44653 6.37793 8.25652 6.37793 9.25568C6.37793 10.2548 7.02385 11.0648 7.82063 11.0648Z" fill="#C94545"/>
<path d="M15.0023 11.0648C15.7991 11.0648 16.445 10.2548 16.445 9.25568C16.445 8.25652 15.7991 7.44653 15.0023 7.44653C14.2055 7.44653 13.5596 8.25652 13.5596 9.25568C13.5596 10.2548 14.2055 11.0648 15.0023 11.0648Z" fill="#C94545"/>
<path d="M15.4667 16.4263C15.3457 16.4263 15.2251 16.3806 15.1362 16.2903C14.1035 15.2437 12.8005 14.7131 11.2623 14.7131C9.72443 14.7131 8.42106 15.2437 7.38875 16.2903C7.21784 16.4635 6.93139 16.4725 6.74886 16.3102C6.56632 16.148 6.55675 15.876 6.72767 15.7027C7.92097 14.4929 9.48925 13.8535 11.2623 13.8535C13.061 13.8535 14.5865 14.4756 15.7969 15.7027C15.9678 15.876 15.9586 16.148 15.7761 16.3102C15.6886 16.3878 15.5775 16.4263 15.4667 16.4263Z" fill="#C94545"/>
</g>
<defs>
<clipPath id="clip0_43_408">
<rect width="22.116" height="21.838" fill="white" transform="translate(0.210938 0.633789)"/>
</clipPath>
</defs>
</svg>